<?xml version="1.0" standalone="no"?>
<!DOCTYPE svg PUBLIC "-//W3C//DTD SVG 20010904//EN"
 "http://www.w3.org/TR/2001/REC-SVG-20010904/DTD/svg10.dtd">
<svg version="1.0" xmlns="http://www.w3.org/2000/svg"
 width="412.000000pt" height="412.000000pt" viewBox="0 0 412.000000 412.000000"
 preserveAspectRatio="xMidYMid meet">
<metadata>
Created by potrace 1.11, written by Peter Selinger 2001-2013
</metadata>
<g transform="translate(0.000000,412.000000) scale(0.100000,-0.100000)"
fill="#000000" stroke="none">
<path d="M960 4110 c0 -4 13 -54 29 -112 60 -213 76 -311 106 -653 3 -38 9
-90 12 -115 3 -25 6 -56 8 -70 29 -247 99 -461 209 -636 42 -66 17 -43 -50 46
-185 245 -302 552 -328 860 -11 121 -18 178 -28 215 -5 22 -12 48 -14 58 -7
39 -53 124 -90 166 -42 48 -118 101 -145 101 -31 0 -30 14 -14 -389 3 -74 7
-144 10 -155 2 -12 7 -46 10 -76 3 -30 10 -80 15 -110 5 -30 12 -71 15 -90 8
-49 51 -218 75 -301 49 -165 179 -431 300 -614 180 -272 394 -539 585 -731
204 -205 233 -230 251 -212 12 12 11 20 -6 55 -45 93 -63 237 -46 351 27 171
130 361 263 482 114 105 292 191 430 208 48 6 58 11 61 28 2 15 -9 28 -41 48
-68 44 -117 134 -163 306 -15 55 -58 257 -68 316 -16 91 -68 270 -98 336 -59
127 -132 189 -228 193 -82 4 -124 -28 -107 -83 3 -9 21 -62 40 -117 19 -56 38
-117 41 -136 3 -20 8 -42 10 -50 7 -21 29 -188 41 -309 3 -30 7 -68 10 -85 11
-74 16 -240 6 -230 -14 14 -67 180 -86 272 -18 83 -19 91 -35 183 -6 33 -12
72 -15 87 -3 16 -14 84 -25 153 -57 349 -114 532 -184 584 -41 31 -86 44 -174
49 l-73 5 6 -52 c4 -28 20 -113 36 -188 26 -122 45 -239 64 -378 3 -25 8 -56
10 -70 2 -14 7 -50 10 -80 10 -94 44 -315 55 -366 7 -27 13 -56 15 -64 6 -26
25 -73 56 -135 l30 -60 -31 35 c-55 61 -173 336 -194 450 -2 14 -7 32 -10 40
-3 8 -8 26 -10 40 -3 14 -8 36 -11 50 -3 14 -7 39 -10 55 -3 17 -7 41 -10 55
-2 14 -7 50 -10 80 -3 30 -8 75 -11 100 -4 36 -32 188 -49 270 -19 89 -59 202
-90 255 -56 96 -135 137 -267 140 -48 1 -88 -1 -88 -5z"/>
<path d="M2988 3330 c-69 -21 -124 -71 -163 -149 -56 -112 -61 -208 -18 -341
53 -166 60 -193 62 -262 2 -71 -15 -120 -44 -132 -10 -3 -15 -15 -13 -28 3
-19 13 -23 75 -34 193 -32 347 -120 445 -254 47 -65 69 -82 82 -62 8 13 -65
293 -117 452 -25 74 -77 225 -118 335 l-73 200 -2 134 c-1 100 -5 136 -15 142
-17 11 -65 10 -101 -1z"/>
<path d="M2605 2343 c-66 -9 -141 -26 -178 -41 -16 -7 -32 -12 -36 -12 -4 0
-39 -19 -79 -43 -144 -86 -262 -213 -330 -355 -54 -114 -71 -190 -68 -312 4
-116 7 -137 37 -213 63 -161 159 -270 389 -441 85 -64 169 -126 185 -138 125
-94 202 -240 207 -388 1 -57 13 -90 32 -90 23 0 78 52 162 154 42 50 84 100
93 111 36 43 151 215 208 310 102 171 197 390 217 500 3 17 8 41 12 55 11 47
12 235 3 304 -39 271 -240 499 -511 577 -71 20 -264 33 -343 22z m202 -313
c201 -64 326 -239 318 -442 -7 -165 -99 -304 -253 -382 -39 -20 -154 -43 -197
-40 -101 9 -163 29 -230 75 -133 89 -204 236 -192 395 6 90 10 103 48 174 60
112 170 197 292 225 62 14 162 11 214 -5z"/>
<path d="M2455 285 c-41 -14 -94 -67 -96 -95 -10 -111 47 -180 148 -180 37 0
50 6 84 38 33 31 42 46 46 83 12 108 -83 188 -182 154z"/>
</g>
</svg>
